# xmcd CD database file
#
# Track frame offsets:
#	150
#	16428
#	29973
#	47217
#	62257
#	76782
#	92343
#	104591
#	118119
#	136557
#	152087
#	167413
#	184316
#
# Disc length: 2659 seconds
#
# Revision: 0
# Processed by: cddbd v1.5.2PL0 Copyright (c) Steve Scherf et al.
# Submitted via: CDex 1.51
#
DISCID=9f0a610d
DTITLE=Luan Santana - Tô de Cara
DYEAR=2009
DGENRE=Country
TTITLE0=Sempre Com Você
TTITLE1=Tô de Cara
TTITLE2=Aqui é seu lugar
TTITLE3=Meteoro
TTITLE4=Jogo do Amor
TTITLE5=A Louca
TTITLE6=Chocolate
TTITLE7=Você do meu lado
TTITLE8=POUT POURI
TTITLE9=Minha Boca você não beija mais
TTITLE10=Somos apenas um
TTITLE11=Você não sabe o que é amor
TTITLE12=Pra você lembrar de mim
EXTD=YEAR: 2009
EXTT0=
EXTT1=
EXTT2=
EXTT3=
EXTT4=
EXTT5=
EXTT6=
EXTT7=
EXTT8=
EXTT9=
EXTT10=
EXTT11=
EXTT12=
PLAYORDER=
